<?xml version="1.0" encoding="UTF-8" standalone="no"?>
<!-- Creator: CorelDRAW X6 -->

<svg
   xmlns:dc="http://purl.org/dc/elements/1.1/"
   xmlns:cc="http://creativecommons.org/ns#"
   xmlns:rdf="http://www.w3.org/1999/02/22-rdf-syntax-ns#"
   xmlns:svg="http://www.w3.org/2000/svg"
   xmlns="http://www.w3.org/2000/svg"
   xmlns:sodipodi="http://sodipodi.sourceforge.net/DTD/sodipodi-0.dtd"
   xmlns:inkscape="http://www.inkscape.org/namespaces/inkscape"
   xml:space="preserve"
   width="11in"
   height="8.5in"
   version="1.1"
   style="shape-rendering:geometricPrecision; text-rendering:geometricPrecision; image-rendering:optimizeQuality; fill-rule:evenodd; clip-rule:evenodd"
   viewBox="0 0 11000 8500"
   id="svg2"
   inkscape:version="0.91 r13725"
   sodipodi:docname="elastic logo contest.svg"><metadata
     id="metadata156"><rdf:RDF><cc:Work
         rdf:about=""><dc:format>image/svg+xml</dc:format><dc:type
           rdf:resource="http://purl.org/dc/dcmitype/StillImage" /></cc:Work></rdf:RDF></metadata><sodipodi:namedview
     pagecolor="#ffffff"
     bordercolor="#666666"
     borderopacity="1"
     objecttolerance="10"
     gridtolerance="10"
     guidetolerance="10"
     inkscape:pageopacity="0"
     inkscape:pageshadow="2"
     inkscape:window-width="2495"
     inkscape:window-height="1416"
     id="namedview154"
     showgrid="false"
     inkscape:zoom="1.1878788"
     inkscape:cx="432.26837"
     inkscape:cy="252.24568"
     inkscape:window-x="65"
     inkscape:window-y="24"
     inkscape:window-maximized="1"
     inkscape:current-layer="_221661512" /><defs
     id="defs4"><style
       type="text/css"
       id="style6"><![CDATA[
    .str0 {stroke:#373435;stroke-width:6.94488}
    .fil4 {fill:#FEFEFE}
    .fil0 {fill:#2B6586}
    .fil3 {fill:white}
    .fil5 {fill:#FEFEFE;fill-rule:nonzero}
    .fil1 {fill:url(#id20)}
    .fil2 {fill:url(#id21)}
   ]]></style><mask
       id="id0"><linearGradient
         id="id1"
         gradientUnits="userSpaceOnUse"
         x1="6289.37"
         y1="3371.87"
         x2="5340.59"
         y2="5438.16"><stop
           offset="0"
           style="stop-opacity:1; stop-color:white"
           id="stop10" /><stop
           offset="1"
           style="stop-opacity:0; stop-color:white"
           id="stop12" /></linearGradient><rect
         style="fill:url(#id1)"
         x="5046"
         y="3502"
         width="1539"
         height="1805"
         id="rect14" /></mask><mask
       id="id2"><linearGradient
         id="id3"
         gradientUnits="userSpaceOnUse"
         x1="5028.45"
         y1="5316.22"
         x2="4193.35"
         y2="3875.27"><stop
           offset="0"
           style="stop-opacity:1; stop-color:white"
           id="stop18" /><stop
           offset="1"
           style="stop-opacity:0; stop-color:white"
           id="stop20" /></linearGradient><rect
         style="fill:url(#id3)"
         x="4169"
         y="3884"
         width="883"
         height="1424"
         id="rect22" /></mask><mask
       id="id4"><linearGradient
         id="id5"
         gradientUnits="userSpaceOnUse"
         x1="5334.2"
         y1="3278.49"
         x2="4460.08"
         y2="5138.83"><stop
           offset="0"
           style="stop-opacity:1; stop-color:white"
           id="stop26" /><stop
           offset="1"
           style="stop-opacity:0; stop-color:white"
           id="stop28" /></linearGradient><rect
         style="fill:url(#id5)"
         x="4348"
         y="3110"
         width="1097"
         height="2198"
         id="rect30" /></mask><mask
       id="id6"><linearGradient
         id="id7"
         gradientUnits="userSpaceOnUse"
         x1="4610.71"
         y1="5824.2"
         x2="5004.4"
         y2="4992.78"><stop
           offset="0"
           style="stop-opacity:1; stop-color:white"
           id="stop34" /><stop
           offset="1"
           style="stop-opacity:0; stop-color:white"
           id="stop36" /></linearGradient><rect
         style="fill:url(#id7)"
         x="4169"
         y="4797"
         width="1277"
         height="1223"
         id="rect38" /></mask><mask
       id="id8"><linearGradient
         id="id9"
         gradientUnits="userSpaceOnUse"
         x1="5333.68"
         y1="6016.69"
         x2="5333.68"
         y2="4800.29"><stop
           offset="0"
           style="stop-opacity:1; stop-color:white"
           id="stop42" /><stop
           offset="1"
           style="stop-opacity:0; stop-color:white"
           id="stop44" /></linearGradient><rect
         style="fill:url(#id9)"
         x="4169"
         y="4797"
         width="2329"
         height="1223"
         id="rect46" /></mask><mask
       id="id10"><linearGradient
         id="id11"
         gradientUnits="userSpaceOnUse"
         x1="3096.09"
         y1="1467.87"
         x2="2608.29"
         y2="2530.24"><stop
           offset="0"
           style="stop-opacity:1; stop-color:white"
           id="stop50" /><stop
           offset="1"
           style="stop-opacity:0; stop-color:white"
           id="stop52" /></linearGradient><rect
         style="fill:url(#id11)"
         x="2455"
         y="1533"
         width="795"
         height="932"
         id="rect54" /></mask><mask
       id="id12"><linearGradient
         id="id13"
         gradientUnits="userSpaceOnUse"
         x1="2447.8"
         y1="2467.54"
         x2="2018.44"
         y2="1726.69"><stop
           offset="0"
           style="stop-opacity:1; stop-color:white"
           id="stop58" /><stop
           offset="1"
           style="stop-opacity:0; stop-color:white"
           id="stop60" /></linearGradient><rect
         style="fill:url(#id13)"
         x="2004"
         y="1729"
         width="457"
         height="736"
         id="rect62" /></mask><mask
       id="id14"><linearGradient
         id="id15"
         gradientUnits="userSpaceOnUse"
         x1="2605"
         y1="1419.86"
         x2="2155.58"
         y2="2376.33"><stop
           offset="0"
           style="stop-opacity:1; stop-color:white"
           id="stop66" /><stop
           offset="1"
           style="stop-opacity:0; stop-color:white"
           id="stop68" /></linearGradient><rect
         style="fill:url(#id15)"
         x="2097"
         y="1331"
         width="568"
         height="1134"
         id="rect70" /></mask><mask
       id="id16"><linearGradient
         id="id17"
         gradientUnits="userSpaceOnUse"
         x1="2233.03"
         y1="2728.72"
         x2="2435.44"
         y2="2301.25"><stop
           offset="0"
           style="stop-opacity:1; stop-color:white"
           id="stop74" /><stop
           offset="1"
           style="stop-opacity:0; stop-color:white"
           id="stop76" /></linearGradient><rect
         style="fill:url(#id17)"
         x="2004"
         y="2199"
         width="660"
         height="632"
         id="rect78" /></mask><mask
       id="id18"><linearGradient
         id="id19"
         gradientUnits="userSpaceOnUse"
         x1="2604.73"
         y1="2827.68"
         x2="2604.73"
         y2="2202.29"><stop
           offset="0"
           style="stop-opacity:1; stop-color:white"
           id="stop82" /><stop
           offset="1"
           style="stop-opacity:0; stop-color:white"
           id="stop84" /></linearGradient><rect
         style="fill:url(#id19)"
         x="2004"
         y="2199"
         width="1201"
         height="632"
         id="rect86" /></mask><linearGradient
       id="id20"
       gradientUnits="userSpaceOnUse"
       x1="6598.21"
       y1="4759.57"
       x2="5486"
       y2="4759.57"><stop
         offset="0"
         style="stop-color:#FEFEFE"
         id="stop89" /><stop
         offset="1"
         style="stop-color:#BDBFC1"
         id="stop91" /></linearGradient><linearGradient
       id="id21"
       gradientUnits="userSpaceOnUse"
       x1="4160.82"
       y1="4759.56"
       x2="5037.66"
       y2="4759.56"><stop
         offset="0"
         style="stop-color:#A9ABAE"
         id="stop94" /><stop
         offset="1"
         style="stop-color:#FEFEFE"
         id="stop96" /></linearGradient></defs><g
     id="Layer_x0020_1"><metadata
       id="CorelCorpID_0Corel-Layer" /><polygon
       class="fil0 str0"
       points="0,0 11000,0 11000,8500 0,8500 "
       id="polygon100" /><g
       id="_221665952"><g
         id="g103"><polygon
           class="fil1"
           points="6581,3678 5441,3113 5441,3506 6264,3970 6496,4558 5536,5153 5049,5304 5630,5477 6495,4983 6211,5650 5441,6017 5441,6406 6581,5863 7035,4766 "
           id="polygon105" /><polygon
           class="fil2"
           points="4303,3678 5442,3113 5442,3506 4672,3887 4173,4800 4583,5607 5442,6017 5442,6406 4303,5863 3756,4749 "
           id="polygon107" /><polygon
           class="fil3"
           style="mask:url(#id0)"
           points="5049,5304 5442,3506 6581,3678 6496,4558 5536,5153 "
           id="polygon109"
           mask="url(#id0)" /><polygon
           class="fil3"
           style="mask:url(#id2)"
           points="4173,4800 4672,3887 5049,5304 "
           id="polygon111"
           mask="url(#id2)" /><polygon
           class="fil3"
           style="mask:url(#id4)"
           points="5442,3113 5442,3506 5049,5304 4672,3887 4352,3653 "
           id="polygon113"
           mask="url(#id4)" /><polygon
           class="fil4"
           style="mask:url(#id6)"
           points="4173,4800 4583,5607 5442,6017 4793,5395 "
           id="polygon115"
           mask="url(#id6)" /><polygon
           class="fil3"
           style="mask:url(#id8)"
           points="6495,4983 5630,5477 5049,5304 4173,4800 5442,6017 6211,5650 "
           id="polygon117"
           mask="url(#id8)" /></g><g
         id="g119"><path
           class="fil5"
           d="M4113 7209c-15,-55 -41,-98 -78,-129 -37,-30 -81,-45 -133,-45 -53,0 -99,16 -138,47 -39,31 -66,73 -80,127l429 0zm-433 109c10,56 36,102 76,137 40,35 89,52 144,52 40,0 76,-10 109,-29 33,-19 59,-46 78,-81l136 0c-31,74 -74,132 -130,171 -56,39 -120,59 -194,59 -50,0 -95,-9 -136,-26 -41,-18 -78,-44 -112,-79 -31,-33 -56,-71 -74,-115 -18,-44 -26,-88 -26,-134 0,-47 8,-91 24,-132 16,-41 40,-79 71,-112 33,-37 71,-64 113,-83 42,-19 88,-28 137,-28 59,0 114,14 165,41 51,27 93,66 126,115 19,30 34,64 43,101 9,36 14,78 14,125l0 19 -566 0zm671 292l0 -890 120 0 0 890 -120 0zm355 -340c0,68 23,125 67,171 45,46 100,69 165,69 59,0 112,-23 157,-69 45,-46 68,-100 68,-162 0,-66 -22,-123 -67,-170 -45,-47 -98,-71 -160,-71 -64,0 -118,22 -163,67 -45,45 -67,100 -67,164zm452 340l0 -82c-31,32 -66,56 -103,73 -38,16 -79,25 -122,25 -101,0 -185,-34 -252,-101 -67,-67 -100,-152 -100,-253 0,-47 8,-92 25,-135 17,-42 40,-80 71,-112 34,-35 71,-62 111,-78 40,-17 86,-25 137,-25 46,0 88,8 127,25 39,16 74,41 106,74l0 -81 123 0 0 672 -123 0z"
           id="path121" /><path
           class="fil5"
           d="M6058 7610l0 -562 -95 0 0 -110 95 0 0 -218 120 0 0 218 95 0 0 110 -95 0 0 562 -120 0zm423 -751l-120 0 0 -139 120 0 0 139zm-120 751l0 -672 120 0 0 672 -120 0zm903 -229c-28,81 -70,142 -125,184 -55,42 -123,63 -202,63 -50,0 -96,-9 -136,-26 -41,-17 -78,-43 -111,-78 -31,-33 -56,-71 -74,-115 -18,-44 -26,-88 -26,-134 0,-47 8,-91 24,-132 16,-41 40,-78 71,-112 35,-37 73,-65 117,-84 43,-19 90,-29 139,-29 77,0 144,21 200,64 57,42 98,102 124,179l-133 0c-21,-41 -48,-72 -82,-92 -33,-20 -73,-30 -120,-30 -60,0 -111,23 -153,68 -42,45 -63,101 -63,168 0,67 21,123 64,168 42,45 95,67 158,67 43,0 81,-11 115,-33 34,-22 61,-54 80,-94l133 0z"
           id="path123" /><path
           class="fil5"
           d="M5345 7392l146 0c0,35 13,65 38,88 25,23 57,35 95,35 36,0 66,-9 89,-26 23,-17 35,-39 35,-66 0,-24 -8,-44 -25,-60 -16,-16 -43,-30 -80,-42 -13,-4 -30,-9 -53,-16 -61,-18 -100,-32 -117,-43 -31,-19 -53,-41 -68,-65 -15,-24 -22,-52 -22,-84 0,-54 24,-101 73,-139 49,-38 109,-57 179,-57 74,0 132,17 175,50 44,34 67,81 71,141l-149 0c-3,-25 -13,-44 -31,-58 -18,-14 -43,-21 -74,-21 -28,0 -51,8 -69,22 -18,15 -28,33 -28,55 0,38 42,68 125,92 24,7 42,13 56,17 66,21 113,47 141,78 28,31 42,72 42,124 0,60 -26,110 -78,150 -52,40 -118,60 -198,60 -80,0 -144,-21 -194,-63 -49,-42 -76,-99 -81,-172z"
           id="path125" /></g></g><g
       id="_221661512"><polygon
         class="fil1"
         points="3246,1625 2660,1335 2660,1537 3083,1775 3202,2078 2709,2384 2458,2461 2757,2550 3202,2296 3056,2639 2660,2828 2660,3028 3246,2749 3480,2185 "
         id="polygon130" /><polygon
         class="fil2"
         points="2075,1625 2661,1335 2661,1537 2265,1733 2008,2202 2219,2617 2661,2828 2661,3028 2075,2749 1794,2176 "
         id="polygon132" /><polygon
         class="fil3"
         style="mask:url(#id10)"
         points="2458,2461 2661,1537 3246,1625 3202,2078 2709,2384 "
         id="polygon134"
         mask="url(#id10)" /><polygon
         class="fil3"
         style="mask:url(#id12)"
         points="2008,2202 2265,1733 2458,2461 "
         id="polygon136"
         mask="url(#id12)" /><polygon
         class="fil3"
         style="mask:url(#id14)"
         points="2661,1335 2661,1537 2458,2461 2265,1733 2100,1613 "
         id="polygon138"
         mask="url(#id14)" /><polygon
         class="fil4"
         style="mask:url(#id16)"
         points="2008,2202 2219,2617 2661,2828 2327,2508 "
         id="polygon140"
         mask="url(#id16)" /><polygon
         class="fil3"
         style="mask:url(#id18)"
         points="3202,2296 2757,2550 2458,2461 2008,2202 2661,2828 3056,2639 "
         id="polygon142"
         mask="url(#id18)" /><g
         id="g144"
         transform="translate(0,-88.888889)"><path
           class="fil5"
           d="m 4309,2212 c -17,-61 -46,-109 -87,-143 -41,-34 -90,-51 -148,-51 -59,0 -110,17 -153,52 -43,35 -73,82 -89,142 l 478,0 z m -482,121 c 11,63 40,113 85,152 45,39 99,58 161,58 44,0 85,-11 121,-32 36,-21 65,-52 87,-90 l 152,0 c -34,83 -83,146 -144,190 -62,44 -134,66 -216,66 -55,0 -106,-10 -152,-29 -46,-19 -87,-49 -124,-88 -35,-37 -62,-79 -82,-128 -20,-49 -29,-98 -29,-149 0,-52 9,-102 27,-147 18,-46 44,-87 79,-125 37,-41 79,-71 126,-92 47,-21 97,-31 153,-31 66,0 127,15 183,46 56,30 103,73 140,128 22,34 38,71 48,112 10,40 16,87 16,139 l 0,21 -629,0 z m 746,324 0,-990 134,0 0,990 -134,0 z m 395,-379 c 0,76 25,139 75,190 50,51 111,77 184,77 66,0 124,-26 175,-77 51,-51 76,-112 76,-180 0,-74 -25,-136 -75,-189 -50,-52 -110,-78 -178,-78 -71,0 -131,25 -181,75 -50,50 -75,111 -75,183 z m 503,379 0,-92 c -34,36 -73,63 -115,81 -42,18 -87,27 -136,27 -112,0 -206,-38 -280,-113 -74,-75 -111,-169 -111,-282 0,-53 9,-103 28,-150 19,-47 45,-89 79,-124 38,-39 79,-68 123,-87 45,-19 95,-28 152,-28 51,0 98,9 141,27 43,18 82,45 117,82 l 0,-90 136,0 0,748 -136,0 z"
           id="path146"
           inkscape:connector-curvature="0"
           style="fill:#fefefe;fill-rule:nonzero" /><path
           class="fil5"
           d="m 6471,2657 0,-625 -106,0 0,-123 106,0 0,-242 134,0 0,242 106,0 0,123 -106,0 0,625 -134,0 z m 470,-835 -134,0 0,-155 134,0 0,155 z m -134,835 0,-748 134,0 0,748 -134,0 z m 1004,-255 c -31,90 -78,158 -139,205 -61,46 -136,70 -225,70 -56,0 -106,-10 -152,-29 -45,-19 -86,-48 -123,-87 -35,-37 -62,-79 -82,-128 -20,-48 -29,-98 -29,-149 0,-52 9,-101 27,-146 18,-45 44,-87 79,-125 39,-41 82,-73 130,-94 48,-21 100,-32 154,-32 86,0 160,24 223,71 63,47 109,113 137,199 l -148,0 c -24,-46 -54,-80 -91,-103 -37,-23 -81,-34 -133,-34 -67,0 -123,25 -170,75 -46,50 -70,113 -70,186 0,75 24,137 71,187 47,50 106,75 176,75 47,0 90,-12 128,-37 38,-25 68,-60 89,-105 l 148,0 z"
           id="path148"
           inkscape:connector-curvature="0"
           style="fill:#fefefe;fill-rule:nonzero" /><path
           class="fil5"
           d="m 5678,2415 162,0 c 0,39 14,72 42,98 28,26 63,39 106,39 40,0 73,-10 99,-29 26,-19 39,-44 39,-74 0,-26 -9,-49 -28,-67 -18,-18 -48,-34 -89,-46 -14,-4 -34,-10 -59,-18 -68,-20 -111,-36 -130,-48 -34,-21 -59,-45 -76,-72 -16,-27 -24,-58 -24,-94 0,-61 27,-112 81,-155 54,-42 121,-64 199,-64 82,0 147,19 195,56 48,37 75,90 79,157 l -166,0 c -3,-28 -15,-49 -35,-65 -21,-16 -48,-23 -82,-23 -31,0 -57,8 -77,25 -21,16 -31,37 -31,61 0,42 46,76 139,103 26,8 47,14 62,19 73,23 126,52 157,86 31,34 47,80 47,138 0,67 -29,123 -87,167 -58,44 -131,67 -220,67 -89,0 -161,-23 -215,-70 -55,-47 -84,-110 -90,-192 z"
           id="path150"
           inkscape:connector-curvature="0"
           style="fill:#fefefe;fill-rule:nonzero" /></g></g></g></svg>